<svg xmlns="http://www.w3.org/2000/svg" xmlns:xlink="http://www.w3.org/1999/xlink" xmlns:fi="http://pattern.flaticon.com/" x="0" y="0" width="1280" height="720" viewBox="0 0 1120 630"><rect x="0px" y="0px" width="100%" height="100%" opacity="0" fill="#324480"/><defs><g transform="matrix(0.1171875 0 0 0.1171875 -29 248)" id="L1_0"><path d="M512,256c0,84.344-40.793,159.159-103.717,205.803c-26.342,19.519-56.56,34.105-89.287,42.381  C298.841,509.294,277.744,512,256,512s-42.851-2.706-63.007-7.816c-32.726-8.276-62.945-22.862-89.287-42.392  C40.782,415.148,0,340.334,0,256C0,114.615,114.615,0,256,0S512,114.615,512,256z" fill="#000000"/><g><path d="M408.545,400.144c-1.202-8.056-2.79-16.353-4.754-24.837c-1.735-7.45-3.751-15.047-6.039-22.758   c-6.019-20.25-13.949-41.294-23.562-62.568c-4.211-9.3-8.746-18.641-13.584-27.972c-4.263-8.223-8.756-16.457-13.49-24.639   c-4.723-8.192-9.592-16.196-14.597-24.001c-5.653-8.85-11.473-17.439-17.429-25.736c-13.605-18.965-27.867-36.362-42.402-51.702   c-5.527-5.841-11.097-11.379-16.687-16.593c-6.363-5.956-12.758-11.483-19.143-16.551c-41.681-33.092-78.994-43.029-105.085-27.972   c-26.091,15.067-36.143,52.349-28.327,105.002c1.191,8.056,2.79,16.353,4.765,24.837c1.714,7.45,3.73,15.047,6.029,22.758   c6.019,20.25,13.949,41.305,23.573,62.568c4.201,9.3,8.735,18.63,13.573,27.961c4.263,8.234,8.767,16.457,13.49,24.649   c4.723,8.192,9.592,16.196,14.597,24.001c5.663,8.861,11.483,17.45,17.429,25.746c13.605,18.965,27.867,36.352,42.402,51.691   c5.528,5.841,11.107,11.389,16.697,16.603c6.363,5.956,12.758,11.473,19.132,16.541c15.329,12.173,30.062,21.211,43.865,27.011   c32.726-8.276,62.945-22.862,89.286-42.381C411.961,444.855,412.097,424.093,408.545,400.144z M385.076,458   c-3.041,13.145-8.631,22.152-16.624,26.76c-7.983,4.618-18.578,4.953-31.483,1.024c-13.981-4.274-30.302-13.615-47.208-27.042   c-5.684-4.514-11.379-9.425-17.074-14.702c-5.58-5.183-11.16-10.721-16.697-16.583c-9.509-10.062-18.913-21.076-28.087-32.893   c-6.123-7.889-12.152-16.133-18.035-24.691c-8.537-12.403-16.781-25.464-24.618-39.048c-7.847-13.584-15.036-27.251-21.504-40.845   c-4.472-9.373-8.6-18.714-12.361-27.961c-5.653-13.855-10.491-27.512-14.451-40.772c-2.299-7.732-4.315-15.318-5.998-22.747   c-1.735-7.565-3.145-14.963-4.211-22.141c-3.176-21.347-3.103-40.155,0.188-54.397c3.041-13.145,8.641-22.152,16.624-26.76   c4.315-2.487,9.383-3.741,15.161-3.741c4.932,0,10.386,0.909,16.321,2.727c13.981,4.263,30.302,13.615,47.208,27.032   c5.684,4.514,11.389,9.425,17.074,14.723c5.59,5.172,11.16,10.71,16.687,16.562c9.519,10.062,18.923,21.076,28.108,32.904   c6.123,7.889,12.152,16.133,18.035,24.691c8.526,12.403,16.771,25.464,24.607,39.037c7.847,13.584,15.036,27.251,21.504,40.845   c4.472,9.383,8.6,18.725,12.361,27.972c5.653,13.855,10.491,27.502,14.451,40.761c2.299,7.732,4.315,15.318,6.008,22.747   c1.724,7.565,3.135,14.963,4.201,22.141C388.441,424.95,388.368,443.758,385.076,458z" fill="#f2f2f2"/><path d="M427.677,212.961c-7.576-2.988-15.559-5.757-23.897-8.307c-7.314-2.226-14.9-4.284-22.727-6.154   c-20.543-4.911-42.736-8.568-65.964-10.867c-10.146-1.014-20.501-1.755-30.992-2.226c-9.258-0.428-18.641-0.648-28.097-0.648   s-18.84,0.219-28.108,0.648c-10.501,0.47-20.856,1.223-31.002,2.226c-23.228,2.299-45.411,5.956-65.954,10.867   c-7.826,1.87-15.412,3.929-22.727,6.154c-8.338,2.539-16.321,5.319-23.897,8.307C34.816,232.5,7.544,259.856,7.544,289.98   c0,30.124,27.272,57.48,76.769,77.03c7.576,2.988,15.548,5.757,23.886,8.307c7.314,2.226,14.9,4.284,22.727,6.144   c20.543,4.921,42.736,8.568,65.975,10.877c10.146,1.003,20.501,1.745,31.002,2.226c9.258,0.428,18.641,0.637,28.097,0.637   c9.456,0,18.829-0.209,28.087-0.637c10.501-0.481,20.846-1.223,31.002-2.226c23.228-2.299,45.432-5.956,65.975-10.877   c7.826-1.87,15.412-3.918,22.727-6.154c8.328-2.539,16.311-5.308,23.886-8.297c49.507-19.55,76.769-46.905,76.769-77.03   C504.445,259.856,477.184,232.5,427.677,212.961z M466.045,317.753c-10.679,9.979-26.937,19.435-47.01,27.366   c-6.76,2.664-13.866,5.151-21.285,7.429c-7.283,2.247-14.858,4.305-22.695,6.165c-13.469,3.208-27.711,5.841-42.538,7.879   c-9.885,1.369-20.031,2.466-30.386,3.271c-15.015,1.202-30.448,1.808-46.132,1.808s-31.117-0.606-46.132-1.797   c-10.355-0.815-20.511-1.912-30.396-3.281c-14.827-2.038-29.069-4.671-42.538-7.879c-7.837-1.86-15.412-3.918-22.695-6.165   c-7.419-2.278-14.524-4.765-21.285-7.429c-20.072-7.931-36.331-17.387-47.01-27.366c-9.864-9.206-14.869-18.547-14.869-27.773   c0-9.226,5.005-18.568,14.869-27.773c10.679-9.979,26.937-19.435,47.01-27.366c6.76-2.664,13.866-5.151,21.285-7.429   c7.283-2.247,14.858-4.305,22.695-6.165c13.469-3.208,27.711-5.841,42.538-7.879c9.885-1.369,20.041-2.466,30.396-3.281   c15.015-1.191,30.448-1.797,46.132-1.797s31.117,0.606,46.132,1.808c10.355,0.805,20.501,1.902,30.386,3.271   c14.827,2.038,29.069,4.671,42.538,7.879c7.837,1.86,15.412,3.918,22.695,6.165c7.419,2.278,14.524,4.765,21.285,7.429   c20.072,7.931,36.331,17.387,47.01,27.366c9.864,9.206,14.869,18.547,14.869,27.773   C480.914,299.207,475.909,308.548,466.045,317.753z" fill="#f2f2f2"/><path d="M380.217,74.815c-26.091-15.057-63.404-5.12-105.085,27.972   c-6.374,5.068-12.769,10.595-19.132,16.551c-5.59,5.214-11.17,10.762-16.697,16.603c-14.535,15.339-28.797,32.726-42.412,51.691   c-5.945,8.296-11.766,16.886-17.418,25.736c-5.005,7.805-9.874,15.809-14.597,24.001c-4.723,8.192-9.226,16.415-13.49,24.649   c-4.838,9.331-9.373,18.672-13.573,27.961c-9.624,21.274-17.554,42.318-23.573,62.568c-2.299,7.722-4.315,15.318-6.04,22.768   c-1.964,8.485-3.563,16.771-4.754,24.827c-3.553,23.939-3.417,44.701,0.261,61.649c26.342,19.529,56.56,34.116,89.287,42.392   c13.803-5.799,28.536-14.838,43.865-27.011c6.384-5.068,12.779-10.595,19.143-16.541c5.59-5.214,11.16-10.752,16.687-16.593   c14.524-15.339,28.797-32.737,42.402-51.702c5.945-8.297,11.766-16.886,17.429-25.746c5.005-7.805,9.874-15.809,14.597-24.001   c4.733-8.182,9.226-16.405,13.49-24.639c4.838-9.331,9.373-18.672,13.584-27.972c9.613-21.264,17.544-42.318,23.562-62.568   c2.288-7.711,4.305-15.308,6.029-22.758c1.975-8.485,3.563-16.781,4.765-24.837C416.36,127.164,406.309,89.882,380.217,74.815z    M375.056,221.247c-3.96,13.26-8.798,26.906-14.451,40.761c-3.762,9.247-7.889,18.589-12.361,27.972   c-6.468,13.594-13.657,27.261-21.504,40.845c-7.837,13.573-16.081,26.634-24.607,39.037c-5.893,8.568-11.922,16.812-18.045,24.701   c-9.174,11.818-18.578,22.831-28.097,32.893c-5.527,5.851-11.097,11.389-16.687,16.572c-5.684,5.287-11.389,10.198-17.074,14.712   c-16.906,13.427-33.228,22.768-47.208,27.042c-12.904,3.929-23.5,3.594-31.483-1.024c-7.983-4.608-13.584-13.615-16.624-26.76   c-3.291-14.242-3.365-33.05-0.188-54.397c1.066-7.178,2.476-14.576,4.2-22.141c1.693-7.429,3.709-15.015,6.008-22.747   c3.96-13.26,8.798-26.917,14.451-40.772c3.762-9.247,7.889-18.589,12.361-27.961c6.468-13.594,13.657-27.261,21.504-40.845   c7.837-13.584,16.081-26.645,24.618-39.048c5.883-8.558,11.901-16.802,18.024-24.68c9.185-11.828,18.589-22.841,28.097-32.904   c5.538-5.862,11.118-11.4,16.697-16.572c5.695-5.287,11.389-10.198,17.074-14.712c16.906-13.416,33.228-22.768,47.208-27.032   c5.935-1.818,11.389-2.727,16.321-2.727c5.778,0,10.856,1.254,15.161,3.741c7.993,4.608,13.584,13.615,16.624,26.76   c3.291,14.242,3.365,33.05,0.188,54.397c-1.066,7.178-2.476,14.576-4.211,22.141C379.371,205.928,377.354,213.514,375.056,221.247z   " fill="#f2f2f2"/><circle cx="256" cy="289" r="46" fill="#f2f2f2"/></g></g><path d="M410.785,371.333L230.5,19.667L50.215,371.333H0v70h461v-70H410.785z M230.5,173.107L331.951,371H129.049L230.5,173.107z" transform="matrix(0.13015183806419373 0 0 0.13015183806419373 149 252)" id="L1_1"/><g transform="matrix(0.1171875 0 0 0.1171875 -7 64)" id="L1_2"><path d="M512,256c0,141.385-114.615,256-256,256C125.555,512,17.899,414.438,2.027,288.298  C0.69,277.723,0,266.94,0,256c0-20.041,2.299-39.549,6.656-58.264C33.029,84.428,134.656,0,256,0  c121.041,0,222.469,84.01,249.135,196.901c3.5,14.764,5.705,30.02,6.51,45.641C511.885,247.003,512,251.486,512,256z" fill="#ffffff"/><path d="M243.195,276.559 243.195,210 185.553,176.721 127.912,210 127.912,276.559 185.553,309.838z" fill="#000000"/><path d="M470.204,266.459l37.564,21.692l-37.564,21.692l-57.637-33.28v-66.56l57.637-33.28l34.931,20.177  c3.5,14.764,5.705,30.02,6.51,45.641l-21.358,12.33v-23.186l-20.083-11.588l-20.083,11.588v23.186L470.204,266.459z" fill="#000000"/><path d="M481.392,249.74 481.392,236.82 470.203,230.36 459.013,236.82 459.013,249.74   470.203,256.201z" fill="#000000"/><path d="M100.686,210.004v87.771l-38.442-21.932v-44.993L43.05,219.763l-19.195,11.086v44.993L2.027,288.298  C0.69,277.723,0,266.94,0,256c0-20.041,2.299-39.549,6.656-58.264l36.394-21.013L100.686,210.004z" fill="#000000"/><rect x="127px" y="210px" width="115px" height="66px" transform="matrix(0.5 0.866 -0.866 0.5 303.4564 -39.0495)" fill="#000000"/><path d="M127.912,276.559 147.704,244.283 127.912,210z" fill="#000000"/><path d="M223.979,243.277 243.195,210 185.553,176.721z" fill="#000000"/><path d="M346.551,99.579v88.304l-19.32-11.16l-57.647,33.28v66.56l57.647,33.28l57.637-33.28V120.09  L346.551,99.579z M346.446,254.37l-19.216,11.097l-19.216-11.097v-22.183l19.216-11.097l19.216,11.097V254.37z" fill="#000000"/><g><path d="M282.149,358.717c0,0-1.132-9.729-11.539-9.729c-10.408,0-17.534,1.357-17.534,7.127   s20.25,5.77,27.943,8.032c7.693,2.262,14.48,8.145,11.086,18.553c-3.394,10.408-13.802,11.539-29.866,11.539   s-19.685-13.35-19.685-18.553h9.05c0,0-1.132,8.145,9.502,9.502c10.634,1.357,20.802,2.121,22.173-6.108   c1.81-10.861-34.391-5.43-37.559-16.064c-2.676-8.985-1.132-20.815,16.969-22.626c18.101-1.811,28.056,6.181,28.056,18.101   L282.149,358.717z" fill="#000000"/><path d="M194.723,401.131l20.008,11.551c10.053,5.804,22.619-1.451,22.619-13.059v-20.242v-37.253h-8.155   v55.227c0,6.339-6.862,10.302-12.353,7.131l-13.965-8.062v-58.94l51.043-29.467l51.043,29.467v58.94l-51.043,29.467l-14.704-8.489   l-9.602,3.872l24.305,14.033l59.198-34.179v-68.351L253.92,298.6l-59.198,34.179v68.352H194.723z" fill="#000000"/></g></g><g transform="matrix(0.11936403065919876 0 0 0.11936403065919876 262 -28.000000087424837)" id="L1_4"><path d="M153.821,358.226L0,274.337v-46.463l153.821-83.414v54.574L46.636,250.523l107.185,53.431    C153.821,303.954,153.821,358.226,153.821,358.226z" fill="#010002"/><path d="M180.094,387.584L282.103,115.08h32.227L212.084,387.584H180.094z" fill="#010002"/><path d="M348.843,358.226v-54.272l107.164-52.999l-107.164-52.59v-53.927l153.821,83.522v46.183    L348.843,358.226z" fill="#010002"/></g><path d="M409.132,114.573c-19.608-33.596-46.205-60.194-79.798-79.8C295.736,15.166,259.057,5.365,219.271,5.365   c-39.781,0-76.472,9.804-110.063,29.408c-33.596,19.605-60.192,46.204-79.8,79.8C9.803,148.168,0,184.854,0,224.63   c0,47.78,13.94,90.745,41.827,128.906c27.884,38.164,63.906,64.572,108.063,79.227c5.14,0.954,8.945,0.283,11.419-1.996   c2.475-2.282,3.711-5.14,3.711-8.562c0-0.571-0.049-5.708-0.144-15.417c-0.098-9.709-0.144-18.179-0.144-25.406l-6.567,1.136   c-4.187,0.767-9.469,1.092-15.846,1c-6.374-0.089-12.991-0.757-19.842-1.999c-6.854-1.231-13.229-4.086-19.13-8.559   c-5.898-4.473-10.085-10.328-12.56-17.556l-2.855-6.57c-1.903-4.374-4.899-9.233-8.992-14.559   c-4.093-5.331-8.232-8.945-12.419-10.848l-1.999-1.431c-1.332-0.951-2.568-2.098-3.711-3.429c-1.142-1.331-1.997-2.663-2.568-3.997   c-0.572-1.335-0.098-2.43,1.427-3.289c1.525-0.859,4.281-1.276,8.28-1.276l5.708,0.853c3.807,0.763,8.516,3.042,14.133,6.851   c5.614,3.806,10.229,8.754,13.846,14.842c4.38,7.806,9.657,13.754,15.846,17.847c6.184,4.093,12.419,6.136,18.699,6.136   c6.28,0,11.704-0.476,16.274-1.423c4.565-0.952,8.848-2.383,12.847-4.285c1.713-12.758,6.377-22.559,13.988-29.41   c-10.848-1.14-20.601-2.857-29.264-5.14c-8.658-2.286-17.605-5.996-26.835-11.14c-9.235-5.137-16.896-11.516-22.985-19.126   c-6.09-7.614-11.088-17.61-14.987-29.979c-3.901-12.374-5.852-26.648-5.852-42.826c0-23.035,7.52-42.637,22.557-58.817   c-7.044-17.318-6.379-36.732,1.997-58.24c5.52-1.715,13.706-0.428,24.554,3.853c10.85,4.283,18.794,7.952,23.84,10.994   c5.046,3.041,9.089,5.618,12.135,7.708c17.705-4.947,35.976-7.421,54.818-7.421s37.117,2.474,54.823,7.421l10.849-6.849   c7.419-4.57,16.18-8.758,26.262-12.565c10.088-3.805,17.802-4.853,23.134-3.138c8.562,21.509,9.325,40.922,2.279,58.24   c15.036,16.18,22.559,35.787,22.559,58.817c0,16.178-1.958,30.497-5.853,42.966c-3.9,12.471-8.941,22.457-15.125,29.979   c-6.191,7.521-13.901,13.85-23.131,18.986c-9.232,5.14-18.182,8.85-26.84,11.136c-8.662,2.286-18.415,4.004-29.263,5.146   c9.894,8.562,14.842,22.077,14.842,40.539v60.237c0,3.422,1.19,6.279,3.572,8.562c2.379,2.279,6.136,2.95,11.276,1.995   c44.163-14.653,80.185-41.062,108.068-79.226c27.88-38.161,41.825-81.126,41.825-128.906   C438.536,184.851,428.728,148.168,409.132,114.573z" transform="matrix(0.13681481778621674 0 0 0.13681481778621674 228 199)" id="L1_5"/><path d="M459,0H51C22.95,0,0,22.95,0,51v408c0,28.05,22.95,51,51,51h408c28.05,0,51-22.95,51-51V51C510,22.95,487.05,0,459,0z     M153,433.5H76.5V204H153V433.5z M114.75,160.65c-25.5,0-45.9-20.4-45.9-45.9s20.4-45.9,45.9-45.9s45.9,20.4,45.9,45.9    S140.25,160.65,114.75,160.65z M433.5,433.5H357V298.35c0-20.399-17.85-38.25-38.25-38.25s-38.25,17.851-38.25,38.25V433.5H204    V204h76.5v30.6c12.75-20.4,40.8-35.7,63.75-35.7c48.45,0,89.25,40.8,89.25,89.25V433.5z" transform="matrix(0.11764705926179886 0 0 0.11764705926179886 41 168)" id="L1_6"/><g transform="matrix(0.11877777427434921 0 0 0.11877777427434921 107 60)" id="L1_7"><path d="M68.541,164.715h-1.294c-16.588,0-30.113,13.568-30.113,30.113v131.107     c0,16.61,13.525,30.134,30.113,30.134h1.316c16.588,0,30.113-13.568,30.113-30.134V194.827     C98.654,178.283,85.108,164.715,68.541,164.715z" fill="#010002"/><path d="M113.085,376.54c0,15.229,12.446,27.632,27.675,27.632h29.574v70.817     c0,16.631,13.568,30.156,30.113,30.156h1.294c16.61,0,30.156-13.546,30.156-30.156v-70.817h41.33v70.817     c0,16.631,13.611,30.156,30.156,30.156h1.273c16.609,0,30.134-13.546,30.134-30.156v-70.817h29.595     c15.207,0,27.654-12.403,27.654-27.632V169.525H113.085V376.54z" fill="#010002"/><path d="M322.041,43.983l23.491-36.26c1.51-2.287,0.841-5.414-1.467-6.903     c-2.286-1.51-5.414-0.884-6.903,1.467l-24.353,37.512c-18.27-7.485-38.676-11.691-60.226-11.691     c-21.571,0-41.934,4.206-60.247,11.691l-24.31-37.512c-1.488-2.351-4.638-2.977-6.946-1.467     c-2.308,1.488-2.977,4.616-1.467,6.903l23.512,36.26c-42.387,20.773-70.968,59.924-70.968,104.834     c0,2.761,0.173,5.479,0.41,8.175h280.053c0.237-2.696,0.388-5.414,0.388-8.175C393.009,103.907,364.406,64.756,322.041,43.983z      M187.655,108.911c-7.442,0-13.482-5.997-13.482-13.46c0-7.463,6.04-13.439,13.482-13.439c7.485,0,13.482,5.975,13.482,13.439     S195.097,108.911,187.655,108.911z M317.49,108.911c-7.442,0-13.482-5.997-13.482-13.46c0-7.463,6.04-13.439,13.482-13.439     c7.463,0,13.46,5.975,13.46,13.439C330.95,102.914,324.953,108.911,317.49,108.911z" fill="#010002"/><path d="M437.876,164.715h-1.251c-16.588,0-30.156,13.568-30.156,30.113v131.107     c0,16.61,13.59,30.134,30.156,30.134h1.273c16.609,0,30.113-13.568,30.113-30.134V194.827     C468.011,178.283,454.464,164.715,437.876,164.715z" fill="#010002"/></g><path d="M19.494,0H7.948C6.843,0,5.951,0.896,5.951,1.999v23.446c0,1.102,0.892,1.997,1.997,1.997h11.546   c1.103,0,1.997-0.895,1.997-1.997V1.999C21.491,0.896,20.597,0,19.494,0z M10.872,1.214h5.7c0.144,0,0.261,0.215,0.261,0.481   s-0.117,0.482-0.261,0.482h-5.7c-0.145,0-0.26-0.216-0.26-0.482C10.612,1.429,10.727,1.214,10.872,1.214z M13.722,25.469   c-0.703,0-1.275-0.572-1.275-1.276s0.572-1.274,1.275-1.274c0.701,0,1.273,0.57,1.273,1.274S14.423,25.469,13.722,25.469z    M19.995,21.1H7.448V3.373h12.547V21.1z" transform="matrix(2.186429500579834 0 0 2.186429500579834 153 161)" id="L1_8"/><g transform="matrix(0.134439617395401 0 0 0.134439617395401 42.999998030669644 -21)" id="L1_9"><path d="M381.902,113.195c-0.944-28.551-1.467-67.126-1.188-95.697c0.01-1.274-0.193-2.396-0.482-3.453    c0.553-6.226-3.098-12.796-11.07-12.588C268.521,4.098,167.903,0.157,67.266,0c-8.371-0.016-12.038,7.343-11.006,13.802    c-0.333,1.122-0.566,2.328-0.551,3.702c1.519,120.089,5.647,292.639,5.776,412.749c0,2.696,0.764,4.88,1.985,6.616    c0.739,5.088,4.4,9.587,11.019,9.425c43.498-1.082,87.014-1.777,130.479-3.91c38.743-1.899,87.018,0.645,124.047-11.994    c13.106-4.479,24.836-11.101,34.891-20.683c18.377-17.519,24.648-41.035,26.238-65.815c1.518-23.806-1.285-48.774-1.844-70.706    C386.869,216.532,383.76,169.838,381.902,113.195z M318.224,327.397c-7.084,0.04-13.929,5.57-10.766,14.065    c6.368,17.088,9.278,38.304-0.508,54.649c-11.836,19.764-32.955,19.226-53.039,21.759c-12.278,1.549-25.334,0.727-37.717,1.077    c-9.635,0.269-131.628,3.244-131.628,3.722c-0.287-115.605-4.108-283.668-5.652-399.266c92.917,0.401,185.808,3.593,278.725,1.607    c-0.355,94.913,8.06,232.117,8.557,307.128c-14.411-4.55-29.31-6.469-44.691-5.438    C320.291,326.777,319.219,327.052,318.224,327.397z M327.298,406.416c9.334-15.899,11.659-35.409,6.81-56.559    c11.237,0.437,22.318,2.604,32.804,7.053c0.051,0.127,0.082,0.264,0.127,0.396C363.631,382.366,347.783,397.742,327.298,406.416z"/><path d="M214.125,138.648c-23.97,0.858-47.936,1.668-71.929,1.732c-15.089,0.041-15.089,23.44,0,23.399    c10.135-0.025,20.258-0.238,30.389-0.482c4.293,17.194,7.16,34.713,6.794,52.481c-0.134,6.495-0.7,15.219-5.096,20.459    c-5.037,5.997-16.841-0.716-21.848-3.26c-13.421-6.825-25.263,13.36-11.809,20.2c24.298,12.359,50.396,11.745,59.476-17.718    c6.941-22.525,1.965-49.83-3.585-72.846c5.873-0.19,11.743-0.358,17.613-0.571C229.171,161.512,229.222,138.108,214.125,138.648z"/><path d="M265.052,167.228c-2.259-4.687-1.219-8.186-2.803-7.084c6.82-4.763,20.724-1.589,28.143-0.695    c14.959,1.8,14.792-21.622,0-23.399c-15.63-1.876-39.472-4.014-48.338,12.708c-7.124,13.431,1.696,29.364,8.587,40.908    c8.491,14.226,19.108,27.226,26.304,42.216c0.59,1.224,1.412,4.265,1.696,5.361c-7.276,3.819-22.855-0.619-30.203-1.979    c-14.747-2.732-21.049,19.824-6.221,22.562c15.868,2.939,42.081,9.079,54.649-5.307c10.755-12.314,2.66-29.033-4.276-41.002    C283.867,196.477,272.634,182.941,265.052,167.228z"/></g><g transform="matrix(0.1171875 0 0 0.1171875 175 -6)" id="L1_10"><path d="M512,256c0,23.155-3.072,45.599-8.84,66.936c-13.479,49.894-41.66,93.748-79.621,126.631  C378.64,488.469,320.073,512,256,512C114.615,512,0,397.385,0,256S114.615,0,256,0S512,114.615,512,256z" fill="#000000"/><g><path d="M503.16,322.936c-13.479,49.894-41.66,93.748-79.621,126.631c-3.709,0.199-7.586,0.293-11.609,0.293   c-53.154,0-82.693-33.217-97.374-58.138l48.191-28.954c0,0,16.394,34.837,47.125,34.837c30.741,0,43.039-10.25,43.039-33.813   c0-28.693-99.391-38.933-114.761-88.116c-15.37-49.183,5.12-118.868,76.852-113.737c44.826,3.197,70.04,25.213,82.651,41.273   l-47.815,34.544c-10.25-29.706-52.255-29.706-60.458-5.12c-8.192,24.597,19.466,38.933,62.506,53.279   C473.997,293.282,491.781,306.876,503.16,322.936z" fill="#f2f2f2"/><path d="M300.943,169.786 83.106,169.786 83.106,221.202 162.935,221.202 162.935,444.45    221.115,444.45 221.115,221.202 300.943,221.202z" fill="#f2f2f2"/></g></g><path d="M75.089,23.98 58.245,108.778 403.138,108.778 392.289,163.309 47.111,163.309 30.549,248.104 375.445,248.104    356.027,344.887 217.273,390.856 96.789,344.887 105.069,302.921 20.272,302.921 0,404.559 199.286,480.791 428.831,404.559    504.771,23.98z" transform="matrix(0.11886578053236008 0 0 0.11886578053236008 247 97.00000046431944)" id="L1_12"/></defs><g fi:class="KUsePattern" opacity="0.2"><pattern id="pattern_L1_2" width="350" height="350" patternUnits="userSpaceOnUse"><use xlink:href="#L1_2" x="-350" y="-350"/><use xlink:href="#L1_2" x="0" y="-350"/><use xlink:href="#L1_2" x="350" y="-350"/><use xlink:href="#L1_2" x="-350" y="0"/><use xlink:href="#L1_2" x="0" y="0"/><use xlink:href="#L1_2" x="350" y="0"/><use xlink:href="#L1_2" x="-350" y="350"/><use xlink:href="#L1_2" x="0" y="350"/><use xlink:href="#L1_2" x="350" y="350"/></pattern><rect x="0" y="0" width="100%" height="100%" fill="url(#pattern_L1_2)"/></g><g fi:class="KUsePattern" opacity="0.2"><pattern id="pattern_L1_0" width="350" height="350" patternUnits="userSpaceOnUse"><use xlink:href="#L1_0" x="-350" y="-350"/><use xlink:href="#L1_0" x="0" y="-350"/><use xlink:href="#L1_0" x="350" y="-350"/><use xlink:href="#L1_0" x="-350" y="0"/><use xlink:href="#L1_0" x="0" y="0"/><use xlink:href="#L1_0" x="350" y="0"/><use xlink:href="#L1_0" x="-350" y="350"/><use xlink:href="#L1_0" x="0" y="350"/><use xlink:href="#L1_0" x="350" y="350"/></pattern><rect x="0" y="0" width="100%" height="100%" fill="url(#pattern_L1_0)"/></g><g fi:class="KUsePattern" opacity="0.2"><pattern id="pattern_L1_1" width="350" height="350" patternUnits="userSpaceOnUse"><use xlink:href="#L1_1" x="-350" y="-350"/><use xlink:href="#L1_1" x="0" y="-350"/><use xlink:href="#L1_1" x="350" y="-350"/><use xlink:href="#L1_1" x="-350" y="0"/><use xlink:href="#L1_1" x="0" y="0"/><use xlink:href="#L1_1" x="350" y="0"/><use xlink:href="#L1_1" x="-350" y="350"/><use xlink:href="#L1_1" x="0" y="350"/><use xlink:href="#L1_1" x="350" y="350"/></pattern><rect x="0" y="0" width="100%" height="100%" fill="url(#pattern_L1_1)"/></g><g fi:class="KUsePattern" opacity="0.2"><pattern id="pattern_L1_4" width="350" height="350" patternUnits="userSpaceOnUse"><use xlink:href="#L1_4" x="-350" y="-350"/><use xlink:href="#L1_4" x="0" y="-350"/><use xlink:href="#L1_4" x="350" y="-350"/><use xlink:href="#L1_4" x="-350" y="0"/><use xlink:href="#L1_4" x="0" y="0"/><use xlink:href="#L1_4" x="350" y="0"/><use xlink:href="#L1_4" x="-350" y="350"/><use xlink:href="#L1_4" x="0" y="350"/><use xlink:href="#L1_4" x="350" y="350"/></pattern><rect x="0" y="0" width="100%" height="100%" fill="url(#pattern_L1_4)"/></g><g fi:class="KUsePattern" opacity="0.2"><pattern id="pattern_L1_5" width="350" height="350" patternUnits="userSpaceOnUse"><use xlink:href="#L1_5" x="-350" y="-350"/><use xlink:href="#L1_5" x="0" y="-350"/><use xlink:href="#L1_5" x="350" y="-350"/><use xlink:href="#L1_5" x="-350" y="0"/><use xlink:href="#L1_5" x="0" y="0"/><use xlink:href="#L1_5" x="350" y="0"/><use xlink:href="#L1_5" x="-350" y="350"/><use xlink:href="#L1_5" x="0" y="350"/><use xlink:href="#L1_5" x="350" y="350"/></pattern><rect x="0" y="0" width="100%" height="100%" fill="url(#pattern_L1_5)"/></g><g fi:class="KUsePattern" opacity="0.2"><pattern id="pattern_L1_6" width="350" height="350" patternUnits="userSpaceOnUse"><use xlink:href="#L1_6" x="-350" y="-350"/><use xlink:href="#L1_6" x="0" y="-350"/><use xlink:href="#L1_6" x="350" y="-350"/><use xlink:href="#L1_6" x="-350" y="0"/><use xlink:href="#L1_6" x="0" y="0"/><use xlink:href="#L1_6" x="350" y="0"/><use xlink:href="#L1_6" x="-350" y="350"/><use xlink:href="#L1_6" x="0" y="350"/><use xlink:href="#L1_6" x="350" y="350"/></pattern><rect x="0" y="0" width="100%" height="100%" fill="url(#pattern_L1_6)"/></g><g fi:class="KUsePattern" opacity="0.2"><pattern id="pattern_L1_7" width="350" height="350" patternUnits="userSpaceOnUse"><use xlink:href="#L1_7" x="-350" y="-350"/><use xlink:href="#L1_7" x="0" y="-350"/><use xlink:href="#L1_7" x="350" y="-350"/><use xlink:href="#L1_7" x="-350" y="0"/><use xlink:href="#L1_7" x="0" y="0"/><use xlink:href="#L1_7" x="350" y="0"/><use xlink:href="#L1_7" x="-350" y="350"/><use xlink:href="#L1_7" x="0" y="350"/><use xlink:href="#L1_7" x="350" y="350"/></pattern><rect x="0" y="0" width="100%" height="100%" fill="url(#pattern_L1_7)"/></g><g fi:class="KUsePattern" opacity="0.2"><pattern id="pattern_L1_8" width="350" height="350" patternUnits="userSpaceOnUse"><use xlink:href="#L1_8" x="-350" y="-350"/><use xlink:href="#L1_8" x="0" y="-350"/><use xlink:href="#L1_8" x="350" y="-350"/><use xlink:href="#L1_8" x="-350" y="0"/><use xlink:href="#L1_8" x="0" y="0"/><use xlink:href="#L1_8" x="350" y="0"/><use xlink:href="#L1_8" x="-350" y="350"/><use xlink:href="#L1_8" x="0" y="350"/><use xlink:href="#L1_8" x="350" y="350"/></pattern><rect x="0" y="0" width="100%" height="100%" fill="url(#pattern_L1_8)"/></g><g fi:class="KUsePattern" opacity="0.2"><pattern id="pattern_L1_9" width="350" height="350" patternUnits="userSpaceOnUse"><use xlink:href="#L1_9" x="-350" y="-350"/><use xlink:href="#L1_9" x="0" y="-350"/><use xlink:href="#L1_9" x="350" y="-350"/><use xlink:href="#L1_9" x="-350" y="0"/><use xlink:href="#L1_9" x="0" y="0"/><use xlink:href="#L1_9" x="350" y="0"/><use xlink:href="#L1_9" x="-350" y="350"/><use xlink:href="#L1_9" x="0" y="350"/><use xlink:href="#L1_9" x="350" y="350"/></pattern><rect x="0" y="0" width="100%" height="100%" fill="url(#pattern_L1_9)"/></g><g fi:class="KUsePattern" opacity="0.2"><pattern id="pattern_L1_10" width="350" height="350" patternUnits="userSpaceOnUse"><use xlink:href="#L1_10" x="-350" y="-350"/><use xlink:href="#L1_10" x="0" y="-350"/><use xlink:href="#L1_10" x="350" y="-350"/><use xlink:href="#L1_10" x="-350" y="0"/><use xlink:href="#L1_10" x="0" y="0"/><use xlink:href="#L1_10" x="350" y="0"/><use xlink:href="#L1_10" x="-350" y="350"/><use xlink:href="#L1_10" x="0" y="350"/><use xlink:href="#L1_10" x="350" y="350"/></pattern><rect x="0" y="0" width="100%" height="100%" fill="url(#pattern_L1_10)"/></g><g fi:class="KUsePattern" opacity="0.2"><pattern id="pattern_L1_12" width="350" height="350" patternUnits="userSpaceOnUse"><use xlink:href="#L1_12" x="-350" y="-350"/><use xlink:href="#L1_12" x="0" y="-350"/><use xlink:href="#L1_12" x="350" y="-350"/><use xlink:href="#L1_12" x="-350" y="0"/><use xlink:href="#L1_12" x="0" y="0"/><use xlink:href="#L1_12" x="350" y="0"/><use xlink:href="#L1_12" x="-350" y="350"/><use xlink:href="#L1_12" x="0" y="350"/><use xlink:href="#L1_12" x="350" y="350"/></pattern><rect x="0" y="0" width="100%" height="100%" fill="url(#pattern_L1_12)"/></g></svg>